<svg xmlns="http://www.w3.org/2000/svg" viewBox="0 0 644 644">
  <path d="M612.019 375.867C614.184 374.721 620.168 371.156 625.135 368.1C636.085 361.352 661.68 352.185 677.469 349.511C697.97 345.946 731.969 347.346 755.653 352.694C758.455 353.33 762.02 353.967 763.675 353.967H766.477V271.842V189.716H758.71H751.069L751.451 258.218L751.833 326.592L737.19 326.21C703.573 325.319 669.575 332.194 640.542 345.818C633.921 348.874 628.318 351.166 628.063 350.911C627.045 350.02 645.636 337.415 654.676 332.831C672.121 324.045 702.682 316.406 727.003 315.005L741.01 314.114V235.299V156.611H734.261C726.239 156.611 701.027 159.667 686.128 162.341C664.099 166.415 638.25 174.819 617.749 184.623L604.761 190.862L604.634 205.887C604.634 214.163 604.252 226.259 603.87 232.752L603.233 244.594L612.019 238.609C622.333 231.479 634.175 225.877 650.602 220.529C661.17 216.964 682.563 211.362 685.364 211.362C685.874 211.362 686.128 224.986 686.001 241.538L685.619 271.587L681.799 272.733C660.406 279.099 649.074 284.32 634.303 294.506C624.243 301.509 611.637 314.114 606.162 323.027L602.596 328.757L599.031 322.517C591.263 309.276 570.126 290.559 553.699 282.537C534.344 273.115 528.105 266.494 518.045 245.23C510.533 229.06 507.477 215.181 507.604 196.082C507.604 173.673 512.188 155.975 522.63 137.894C527.978 128.727 546.696 110.647 556.373 105.299C573.818 95.7494 595.211 91.675 616.221 94.0942C642.962 97.15 659.133 104.153 679.252 121.724L687.02 128.472L700.772 115.867C708.285 108.864 717.58 100.588 721.4 97.2773C725.22 93.9668 728.276 90.911 728.276 90.2744C728.276 88.3645 720.127 79.9609 711.723 73.2126C702.173 65.7004 688.548 57.5514 678.87 53.6043C675.305 52.2037 669.447 49.7846 666.009 48.384C647.291 40.8717 614.056 36.9246 587.825 39.2165C559.557 41.763 537.4 48.766 513.334 62.8992C496.144 72.958 471.059 98.9325 465.456 112.302C463.673 116.504 463.419 129.364 463.419 215.818V314.496H470.804C490.541 314.496 526.068 322.136 545.041 330.284C555.227 334.741 574.837 346.964 578.148 350.911C579.166 352.184 576.365 351.293 571.017 348.619C542.239 334.104 505.949 325.955 470.549 325.955H453.232L453.104 229.442L452.977 133.056L448.775 141.969C444.063 152.155 441.135 162.85 439.097 177.875C437.569 189.589 437.951 351.803 439.479 353.458C439.989 353.967 447.756 353.076 456.67 351.421C479.081 347.346 511.679 346.455 527.723 349.511C550.134 353.712 570.38 361.479 585.661 371.793C589.481 374.339 593.555 376.886 594.574 377.268C598.649 378.796 608.072 378.032 612.019 375.867Z" fill="#1B2E4A" fill-rule="evenodd" clip-rule="evenodd" transform="translate(-423.0,113.8)"/>
  <path d="M1608.8 334.613C1612.11 324.555 1615.04 315.769 1615.3 315.005C1615.68 314.241 1613.89 310.803 1611.48 307.238C1607.27 301.127 1600.52 288.776 1600.4 286.866C1600.4 286.229 1599.89 285.211 1599.25 284.574C1598.74 283.938 1598.23 278.335 1598.23 272.096C1598.1 257.963 1601.29 251.469 1611.48 244.976L1618.35 240.519V233.134C1618.35 229.06 1619.5 222.566 1620.77 218.619C1623.06 212.126 1623.06 210.98 1621.41 205.505C1618.61 196.21 1619.12 187.424 1622.81 179.912C1624.59 176.347 1627.14 172.527 1628.54 171.254C1630.96 169.089 1630.96 168.962 1627.26 163.614L1623.44 158.139L1617.08 160.558C1613.51 161.832 1609.31 162.978 1607.78 162.978C1604.98 162.978 1603.83 165.906 1591.23 203.467C1579.64 238.355 1561.18 292.214 1548.57 328.502C1546.53 334.486 1544.88 339.579 1544.75 339.961C1544.62 340.343 1543.73 342.762 1542.71 345.309C1541.57 347.983 1540.68 350.657 1540.68 351.421C1540.68 352.184 1551.25 352.694 1571.87 352.694H1602.94L1608.8 334.613ZM1789.49 290.559C1778.03 256.435 1767.59 227.914 1766.57 227.023C1764.79 225.749 1763.39 226.768 1757.53 233.389C1747.09 245.358 1733.72 263.311 1729.26 271.587C1725.69 278.335 1724.68 283.81 1726.46 287.121C1726.84 287.757 1727.22 289.031 1727.35 289.922C1727.48 290.813 1729.64 297.689 1732.06 305.201C1734.61 312.713 1738.94 326.592 1741.87 335.887L1747.09 352.694H1778.79H1810.5L1789.49 290.559ZM1681.38 307.366C1693.99 301.254 1700.61 293.36 1710.92 272.351C1720.6 252.488 1725.57 245.358 1741.99 226.641C1756.51 210.216 1761.22 203.467 1767.33 190.735C1787.71 148.462 1783.12 98.4232 1756.38 68.3742C1746.2 57.0422 1728.24 45.8374 1714.23 42.145C1690.17 35.6513 1660.88 39.0892 1641.91 50.2939C1615.8 65.8277 1600.4 92.5662 1598.36 125.671C1597.47 140.95 1599 145.152 1605.74 145.152C1613.39 145.152 1614.53 143.497 1614.53 133.183C1614.53 117.14 1621.41 96.004 1630.83 83.2714C1635.92 76.2685 1648.91 66.8463 1659.61 62.2626C1674.25 56.0236 1697.68 55.2596 1712.58 60.48C1745.05 71.9393 1762.24 99.3145 1762.24 139.168C1762.24 167.307 1753.96 185.387 1725.95 218.365C1709.78 237.463 1705.32 244.212 1697.94 261.146C1690.68 277.699 1684.57 285.847 1675.65 291.322C1669.79 294.76 1667.5 295.397 1660.63 295.397C1644.45 295.397 1631.08 283.301 1631.08 268.658C1631.08 265.221 1630.19 262.674 1628.54 261.019C1625.23 257.708 1622.43 257.836 1618.73 261.274C1616.31 263.438 1615.8 265.348 1615.8 271.078C1615.8 285.338 1621.53 296.288 1632.99 303.8C1642.54 310.167 1649.8 312.077 1662.92 311.44C1671.7 311.058 1675.27 310.294 1681.38 307.366ZM1660.63 250.833C1665.97 249.305 1671.83 243.193 1675.52 235.299C1678.96 228.041 1679.85 227.023 1691.06 218.619C1705.83 207.542 1711.31 197.865 1711.31 183.095C1711.31 156.739 1690.68 134.456 1662.79 130.637L1652.48 129.236L1653.11 123.888C1654.26 113.448 1662.66 101.606 1672.47 96.5133C1676.16 94.4761 1680.11 93.8394 1687.11 93.7121C1695.64 93.5848 1697.43 93.9668 1704.68 97.9139C1723.4 108.1 1732.95 129.363 1731.17 156.611C1730.66 163.232 1730.02 170.235 1729.64 172.145C1729.01 174.946 1729.26 175.71 1730.92 175.71C1732.32 175.71 1732.7 175.074 1732.19 174.182C1731.68 173.418 1731.81 173.164 1732.57 173.546C1734.1 174.564 1739.7 162.596 1741.99 153.683C1742.89 149.99 1743.27 142.096 1742.89 133.183C1742.38 119.941 1741.99 118.159 1737.79 109.373C1726.84 86.4546 1707.49 74.9952 1682.66 76.9051C1660.75 78.5603 1642.29 93.9668 1637.32 114.594C1630.83 142.351 1643.95 167.052 1667.5 171.381L1672.47 172.272L1664.45 163.869C1653.88 152.792 1654.01 149.608 1665.08 150.118C1681 150.627 1696.28 168.707 1694.37 184.75C1693.35 193.409 1690.04 198.374 1680.49 205.377C1669.41 213.526 1664.96 218.492 1661.52 226.641C1657.32 236.827 1652.73 239.755 1650.06 233.898C1649.04 231.607 1649.17 229.697 1650.95 225.877C1652.1 223.203 1653.24 220.656 1653.24 220.274C1653.37 219.892 1654.64 218.237 1656.3 216.455C1657.83 214.799 1659.1 212.635 1659.1 211.744C1659.1 210.852 1659.61 210.088 1660.24 210.088C1662.28 210.088 1664.45 202.703 1664.45 196.082C1664.32 188.57 1662.15 185.26 1655.66 182.586C1649.04 179.785 1645.22 180.421 1640.51 185.132C1635.41 190.225 1635.16 192.645 1638.85 203.595L1641.53 211.489L1638.22 218.874C1631.47 234.153 1635.67 246.886 1648.78 250.833C1653.37 252.233 1655.28 252.233 1660.63 250.833Z" fill="#D97B3D" fill-rule="evenodd" clip-rule="evenodd" transform="translate(361.0,150.8) scale(1.0789) translate(-1541,-36)"/>
</svg>