<svg width="3103" height="675" viewBox="0 0 3103 675" fill="none" xmlns="http://www.w3.org/2000/svg">
<path fill-rule="evenodd" clip-rule="evenodd" d="M419.488 572.332C424.836 570.167 431.203 564.565 433.877 559.726C435.787 556.289 436.041 550.559 436.423 514.144L436.805 472.381H430.311H423.69L424.454 478.365L425.091 484.349L419.742 479.002C411.338 470.725 403.444 469.07 391.729 473.144C369.827 480.657 363.97 518.091 381.796 536.044C389.309 543.556 396.695 545.721 407.264 543.556C412.739 542.41 415.54 541.009 419.36 537.19C422.035 534.389 424.581 532.224 424.836 532.224C426.619 532.224 424.199 552.341 422.034 556.034C415.795 566.602 398.35 567.748 387.272 558.326L382.433 554.124L378.358 556.671C376.066 558.071 374.284 559.726 374.284 560.236C374.284 562.146 381.669 568.767 386.381 571.058C395.803 575.515 410.574 576.024 419.488 572.332ZM1048.02 554.124C1047.76 534.77 1048.52 530.823 1051.07 537.062C1052.22 539.736 1054.89 541.901 1059.86 544.32C1065.97 547.248 1068.13 547.758 1073.61 547.121C1087.74 545.466 1096.4 537.699 1100.73 522.802C1104.68 509.56 1101.88 491.734 1094.37 481.803C1089.91 475.946 1079.47 471.107 1071.57 471.107C1063.81 471.107 1055.27 474.8 1052.35 479.256C1049.29 483.967 1047.89 483.331 1047.89 477.474V472.381H1042.16H1036.43V520.637C1036.43 547.248 1036.81 569.913 1037.19 571.058C1037.83 572.586 1039.36 572.968 1043.05 572.714L1048.14 572.332L1048.02 554.124ZM1611.98 552.978V532.861L1615.04 537.444C1617.08 540.373 1620.52 543.047 1624.59 544.702C1631.98 548.012 1634.9 548.14 1643.05 545.72C1656.68 541.646 1664.06 530.951 1665.08 513.889C1666.61 490.461 1658.84 476.964 1641.14 472.253C1631.72 469.707 1623.83 471.617 1617.46 478.11C1611.73 483.84 1611.22 483.585 1611.98 475.182C1612.11 472.635 1611.6 472.381 1606.38 472.381H1600.52V521.783C1600.52 549.031 1600.91 571.695 1601.42 572.077C1601.8 572.586 1604.47 572.968 1607.15 572.968H1611.98V552.978ZM305.905 543.301C313.035 540.118 318.256 534.389 318.256 529.932C318.256 524.966 309.343 524.33 306.287 529.041C302.849 534.261 297.246 536.426 288.46 535.789C282.729 535.407 279.419 534.516 276.363 532.351C271.779 529.041 267.449 520.892 267.322 515.417V511.852H294.19H321.185L320.421 503.957C319.275 492.116 317.365 486.768 312.399 481.293C302.976 470.853 287.186 468.433 273.816 475.054C261.21 481.421 255.862 491.352 255.862 508.796C255.862 521.656 258.918 530.314 266.049 537.444C276.235 547.63 291.643 549.922 305.905 543.301ZM601.577 546.103C604.634 545.211 608.581 542.665 611.382 539.736L616.094 534.77L616.476 540.245C616.858 545.593 616.858 545.593 621.951 545.593H627.045L627.427 496.318L627.681 446.915H621.951H616.221V465.505V484.095L612.783 479.893C608.326 474.672 600.559 471.107 593.173 471.107C585.915 471.107 575.346 476.2 571.017 481.803C561.976 493.771 560.448 516.563 567.961 531.078C571.017 537.19 579.548 544.447 585.406 545.975C591.9 547.758 595.593 547.758 601.577 546.103ZM695.042 544.193C703.573 540.755 710.831 529.805 706.502 527.004C702.937 524.712 698.862 525.858 695.042 530.314C690.585 535.407 683.454 537.317 675.05 535.789C665.118 534.006 659.133 527.386 657.35 516.181L656.586 511.852H683.709H710.704L709.813 503.957C708.539 493.517 707.266 489.442 703.446 483.713C696.697 473.399 681.417 468.688 668.938 472.89C654.931 477.474 647.036 488.806 645.89 505.485C644.362 526.494 654.04 541.773 671.612 546.357C676.96 547.758 688.93 546.739 695.042 544.193ZM913.677 545.084C916.478 543.811 920.68 540.5 922.845 537.826L926.92 532.861V539.609V546.23H932.013H937.106V496.573V446.915H931.376H925.774L926.283 465.632L926.92 484.349L922.081 479.638C907.31 465.25 885.79 469.707 875.985 489.315C872.675 496.063 872.165 498.228 872.165 508.032C872.165 525.094 877.386 536.553 887.573 542.283C897.632 548.012 905.4 548.776 913.677 545.084ZM1004.21 544.32C1010.2 541.773 1015.42 536.935 1017.46 532.097C1019.24 527.513 1018.86 527.131 1012.49 526.24C1008.16 525.603 1007.27 525.985 1006.5 528.277C1005.36 532.224 996.954 536.044 989.696 536.044C977.344 536.044 967.667 527.64 967.158 516.563L967.03 512.488L994.153 512.106C1024.84 511.724 1022.17 512.998 1019.75 499.756C1016.31 481.421 1004.85 471.107 987.531 471.107C979.382 471.107 969.577 475.564 964.611 481.421C957.862 489.315 955.697 496.063 955.57 508.669C955.57 519.109 955.952 520.892 959.772 528.659C964.356 538.081 968.431 541.773 978.49 545.339C985.876 547.885 996.572 547.503 1004.21 544.32ZM1165.29 544.193C1170.77 541.519 1174.97 537.572 1177.26 533.243C1179.94 528.149 1179.55 527.386 1174.33 526.367C1170.26 525.603 1169.37 525.858 1167.2 529.041C1161.98 536.171 1148.87 538.208 1138.55 533.497C1134.09 531.46 1132.57 529.805 1129.89 523.948C1124.42 512.106 1123.53 512.616 1154.21 511.852L1180.95 511.215L1180.57 503.575C1179.43 485.113 1168.22 473.017 1150.78 471.489C1144.28 470.853 1142.37 471.235 1134.99 474.927C1125.31 479.638 1120.21 485.75 1117.16 496.445C1112.19 513.125 1118.56 533.879 1130.91 541.773C1140.33 547.63 1156.25 548.776 1165.29 544.193ZM1314.78 545.084C1317.58 543.811 1321.53 540.755 1323.31 538.463L1326.75 534.134V539.482C1326.75 545.339 1329.17 547.121 1335.16 545.72L1338.21 544.957V496.573C1338.21 449.716 1338.09 448.189 1335.67 446.915C1334.27 446.151 1331.72 445.897 1329.94 446.406L1326.75 447.17V464.996V482.821L1321.53 478.238C1314.91 472.635 1309.05 470.598 1301.16 471.362C1287.53 472.763 1275.69 485.113 1273.78 500.01C1270.98 523.184 1279 540.627 1295.17 545.593C1302.81 548.012 1308.67 547.885 1314.78 545.084ZM1390.68 546.23C1393.35 545.466 1397.42 542.919 1399.97 540.627L1404.43 536.426V540.627C1404.43 544.957 1404.55 544.957 1410.16 544.957H1415.89V518.982C1415.89 485.622 1414.49 480.784 1402.52 474.545C1398.7 472.508 1395.13 471.744 1387.87 471.744C1375.9 471.744 1365.46 476.328 1361.01 483.331C1359.48 485.75 1358.46 488.042 1358.71 488.169C1358.97 488.424 1361.52 489.315 1364.32 490.079C1369.16 491.352 1369.54 491.352 1372.59 487.66C1376.54 483.076 1381.13 481.293 1389.15 481.293C1394.37 481.293 1396.02 481.93 1399.84 485.623C1403.41 488.933 1404.43 490.843 1404.43 494.408C1404.43 496.954 1403.92 499.246 1403.28 499.628C1402.77 500.01 1395.26 501.411 1386.73 502.812C1363.93 506.504 1357.44 510.706 1356.42 522.929C1354.89 539.609 1372.21 551.323 1390.68 546.23ZM1727.73 543.301C1734.86 539.736 1741.23 532.224 1743.9 524.202C1748.11 511.47 1744.41 490.079 1736.39 481.548C1724.17 468.433 1701.63 467.924 1689.15 480.529C1681.89 487.787 1678.84 496.445 1678.96 509.942C1678.96 521.528 1681.51 528.659 1688.39 536.553C1697.94 547.376 1713.98 550.05 1727.73 543.301ZM2119.8 545.593C2134.06 541.264 2142.59 525.985 2130.62 525.858C2129.22 525.858 2126.04 527.768 2123.62 530.187C2115.98 537.826 2103.12 538.845 2094.71 532.606C2090.64 529.55 2086.69 521.91 2086.44 516.563L2086.31 512.488L2112.67 512.106L2139.15 511.852V507.65C2139.15 501.156 2135.59 488.806 2132.15 483.713C2128.08 477.474 2115.47 471.107 2107.32 471.107C2088.47 471.107 2075.74 484.477 2074.47 505.485C2073.83 517.199 2076.25 526.749 2081.85 534.516C2086.44 540.882 2090.38 543.683 2098.15 545.72C2106.3 547.885 2112.03 547.885 2119.8 545.593ZM2384.66 545.593C2392.3 543.301 2399.17 537.826 2401.46 532.097C2402.86 528.786 2402.86 528.022 2401.34 527.004C2397.9 524.839 2392.81 525.73 2390.26 529.041C2386.57 533.752 2381.35 536.044 2374.34 536.044C2363.26 536.044 2355.11 530.314 2351.8 520.128C2349 511.724 2348.75 511.852 2378.54 511.852C2408.98 511.852 2406.43 513.125 2403.88 499.756C2403.12 495.554 2401.59 490.461 2400.57 488.296C2388.73 464.868 2353.59 466.142 2342.76 490.461C2340.34 495.936 2339.83 499.501 2339.71 508.796C2339.71 519.619 2339.96 521.019 2344.16 529.041C2349.13 538.845 2352.44 541.646 2362.12 545.084C2370.52 548.012 2376.12 548.14 2384.66 545.593ZM2588.65 546.103C2595.78 544.447 2603.16 539.482 2606.6 534.007C2609.66 528.913 2609.15 527.513 2603.42 526.367C2599.6 525.73 2598.58 526.112 2594.76 530.314C2591.07 534.388 2589.41 535.152 2583.81 535.789C2569.67 537.062 2560.89 531.969 2557.45 520.51C2556.43 516.945 2555.92 513.634 2556.3 512.998C2556.69 512.361 2568.91 511.852 2583.68 511.852H2610.29V506.377C2610.29 486.386 2596.41 471.107 2578.21 471.107C2565.47 471.107 2554.78 477.983 2549.05 489.952C2544.59 498.864 2544.21 515.035 2547.9 525.221C2554.27 542.028 2570.31 550.304 2588.65 546.103ZM2746.42 543.811C2749.09 542.41 2752.53 539.354 2754.06 537.062L2756.73 532.861V538.845C2756.73 545.466 2759.02 547.248 2765.13 545.72L2768.32 544.829L2767.94 503.194C2767.81 480.275 2767.43 458.247 2767.17 454.3L2766.66 446.915H2761.7H2756.73V464.996V483.076L2753.16 479.638C2748.33 475.054 2739.29 471.107 2733.17 471.107C2726.93 471.107 2716.62 475.818 2711.91 480.784C2705.41 487.787 2702.74 495.936 2702.74 509.305C2702.61 520.001 2702.99 522.292 2706.05 528.404C2710.51 537.572 2715.47 542.155 2723.88 545.211C2731.77 548.012 2739.03 547.503 2746.42 543.811ZM2877.7 546.103C2885.72 544.32 2892.47 539.482 2895.53 533.497L2898.2 528.404L2894.89 527.131C2889.8 525.221 2886.87 525.603 2885.34 528.531C2881.65 535.407 2867.77 538.336 2858.09 534.261C2853.51 532.351 2848.54 526.494 2845.87 519.873C2842.81 511.852 2842.94 511.852 2872.61 511.852H2899.35V506.886C2899.35 500.01 2895.14 487.15 2891.2 481.93C2889.41 479.638 2884.7 476.073 2880.88 474.163C2874.77 471.235 2872.73 470.853 2865.6 471.362C2845.36 473.017 2833.39 488.424 2834.66 511.088C2835.68 529.168 2842.81 540.5 2856.31 545.084C2863.95 547.758 2869.42 548.012 2877.7 546.103ZM490.668 544.447C493.088 543.429 496.271 540.882 497.926 538.718C499.454 536.553 501.237 534.77 501.874 534.77C502.383 534.77 502.892 537.19 502.892 540.245V545.72H508.241L513.716 545.593L513.843 509.051L513.971 472.381H508.495H502.892V494.153C502.892 519.491 501.746 525.73 495.889 530.823C487.867 537.826 476.789 536.68 470.549 528.022C468.13 524.712 467.875 522.292 467.493 498.355L467.111 472.381H461.254H455.524L456.033 500.647C456.415 531.078 456.924 533.497 463.8 539.991C470.167 546.102 482.01 548.012 490.668 544.447ZM545.55 508.669V471.744H540.456C535.618 471.744 535.363 471.999 534.726 476.2C534.344 478.62 534.217 495.427 534.472 513.507L534.854 546.357L540.202 545.975L545.55 545.593V508.669ZM776.282 508.669C776.282 488.678 775.9 472.253 775.518 472.253C774.372 471.999 769.915 471.999 767.114 472.126C764.567 472.381 764.567 473.145 764.949 508.541L765.331 544.829L770.042 545.211C772.589 545.466 775.136 545.466 775.518 545.339C776.027 545.084 776.282 528.659 776.282 508.669ZM807.861 520.765C807.988 498.355 808.243 495.299 810.535 490.843C815.119 482.057 825.943 478.874 835.238 483.585C843.26 487.532 844.152 491.225 844.152 519.746V544.957H849.882H855.612V519.746C855.612 491.607 854.338 484.222 848.354 478.492C837.657 468.179 819.576 469.07 810.535 480.147L807.097 484.477L807.479 478.747L807.861 473.017L801.621 472.635L795.382 472.253L796.273 478.238C796.655 481.548 797.037 498.228 797.037 515.289V546.357L802.386 545.975L807.861 545.593V520.765ZM1206.42 544.957C1208.84 544.957 1208.97 543.938 1209.35 519.109C1209.86 490.334 1210.5 487.914 1218.52 483.713C1227.3 478.874 1238.76 482.057 1242.97 490.334C1244.88 494.026 1245.26 498.355 1245.26 520.51V546.357L1250.61 545.975L1256.08 545.593L1255.7 516.435C1255.32 485.622 1254.94 483.458 1248.82 477.856C1242.33 471.744 1229.85 469.325 1221.45 472.508C1219.54 473.144 1215.72 475.946 1213.17 478.492L1208.33 483.076V477.728V472.381H1202.47H1196.74L1197 508.287C1197.13 528.149 1197.51 544.829 1197.76 545.339C1198.14 545.975 1199.67 546.102 1201.2 545.72C1202.6 545.339 1205.02 544.957 1206.42 544.957ZM1447.59 520.001C1447.98 493.007 1448.49 490.206 1454.85 485.24C1459.82 481.421 1465.93 480.657 1472.55 483.076C1482.36 486.896 1482.74 488.296 1482.74 518.473V544.957H1488.85H1495.09L1494.33 516.308C1493.44 481.675 1493.05 480.402 1479.94 473.781C1470.26 468.943 1456.76 471.489 1450.65 479.256C1447.09 483.713 1446.45 483.458 1446.45 477.474V472.381H1440.59C1435.75 472.381 1434.86 472.762 1435.5 474.418C1435.88 475.564 1436.26 491.734 1436.26 510.578V544.829L1441.1 545.211C1443.65 545.466 1446.19 545.466 1446.58 545.339C1446.96 545.211 1447.47 533.752 1447.59 520.001ZM1547.55 544.829C1547.93 544.447 1547.55 542.028 1546.79 539.482C1545.39 535.152 1545.01 534.77 1540.42 534.77C1537.24 534.77 1534.69 533.879 1533.04 532.224C1530.62 529.805 1530.49 528.022 1530.49 506.122V482.567H1538.13H1545.77V477.474V472.508L1538.38 472.126L1531.13 471.744L1530.74 462.449L1530.36 453.282H1524.76H1519.03V462.831V472.381H1513.3C1507.57 472.381 1507.57 472.381 1507.57 476.837C1507.57 480.911 1507.82 481.293 1511.26 481.293C1519.28 481.293 1519.03 480.529 1519.03 507.268C1519.03 534.643 1519.79 537.954 1527.94 543.429C1531.64 545.975 1533.67 546.357 1539.66 545.975C1543.73 545.72 1547.3 545.211 1547.55 544.829ZM1797.13 544.447C1799.55 543.429 1802.86 540.755 1804.52 538.59L1807.44 534.516L1808.08 540.118C1808.72 545.466 1808.84 545.593 1813.94 545.975C1818.9 546.357 1819.29 546.102 1819.8 542.792C1820.05 540.882 1820.18 534.643 1820.18 529.041C1820.05 523.438 1819.92 508.414 1819.8 495.554L1819.54 472.381H1813.81H1808.08V496.827C1808.08 517.709 1807.7 522.038 1805.79 525.73C1802.48 532.479 1797.51 535.407 1790.13 535.28C1784.52 535.28 1783.12 534.643 1779.05 530.569L1774.34 525.858L1773.95 499.119L1773.57 472.381H1767.84H1762.11L1762.49 500.647C1762.88 528.913 1762.88 529.041 1766.31 534.898C1772.17 544.957 1785.92 549.158 1797.13 544.447ZM1851.38 519.237L1852.01 492.753L1856.72 488.042C1860.93 483.967 1862.33 483.331 1869.07 482.821L1876.84 482.312V476.582V470.853L1870.09 471.362C1862.33 471.999 1855.83 475.818 1853.54 481.166C1852.14 484.349 1852.01 484.222 1851.63 478.492L1851.25 472.381H1845.52H1839.91V508.414C1839.91 528.277 1840.3 544.957 1840.81 545.466C1841.32 545.975 1843.73 546.23 1846.28 545.975L1850.74 545.593L1851.38 519.237ZM1982.53 517.963C1983.04 494.917 1983.55 490.206 1985.33 487.278C1988.64 482.312 1992.21 480.911 1999.47 481.675C2004.69 482.057 2006.6 483.076 2009.53 486.259L2013.09 490.206V517.581V544.957H2018.82H2024.55V517.963C2024.55 503.066 2023.91 488.806 2023.28 486.259C2020.99 478.11 2010.67 471.107 2000.99 471.107C1995.01 471.107 1987.88 474.163 1983.04 478.874L1979.09 482.694L1977.06 479.638C1975.91 477.856 1972.47 475.309 1969.41 473.781C1959.23 468.815 1949.04 470.98 1942.17 479.256L1938.35 483.967L1938.47 477.856C1938.6 471.362 1938.85 471.489 1929.69 472.253C1928.03 472.381 1927.78 477.346 1927.78 508.669V544.957H1933.51H1939.24V520.128C1939.24 497.718 1939.49 494.663 1941.78 490.206C1945.99 481.93 1955.28 479.002 1963.43 483.203C1970.43 486.768 1971.07 489.952 1971.07 519.109V545.593L1976.42 545.466L1981.89 545.339L1982.53 517.963ZM2056.39 509.305V472.381H2050.66H2044.92V508.414C2044.92 528.277 2045.31 544.957 2045.82 545.339C2046.2 545.848 2048.87 546.23 2051.55 546.23H2056.39V509.305ZM2191.11 543.556C2194.16 542.028 2197.22 539.482 2197.98 537.826C2199.89 533.752 2201.55 534.006 2201.55 538.336C2201.55 543.429 2203.33 545.211 2208.42 545.593L2213.01 545.975V509.178V472.381H2207.28H2201.55V496.7C2201.55 523.566 2200.66 527.385 2193.78 532.351C2185.76 538.081 2174.55 536.171 2169.71 528.149C2167.42 524.33 2167.17 521.783 2167.17 498.355C2167.17 472.763 2167.17 472.635 2164.37 472.126C2162.71 471.871 2160.16 471.871 2158.51 472.126L2155.71 472.508V499.883C2155.71 529.041 2156.34 533.115 2162.46 539.736C2168.82 546.612 2181.3 548.267 2191.11 543.556ZM2249.17 533.115C2260.38 514.144 2258.59 514.398 2267.89 530.187C2272.35 537.699 2276.93 544.447 2278.33 545.084C2279.6 545.848 2282.91 546.103 2285.46 545.593L2290.3 544.829L2278.46 526.876C2271.96 517.072 2267 508.287 2267.38 507.523C2267.89 506.759 2272.98 498.864 2278.84 489.952C2284.7 481.039 2289.41 473.526 2289.41 473.144C2289.41 472.762 2286.61 472.381 2283.17 472.381H2277.06L2268.4 486.386C2263.69 494.026 2259.36 500.392 2258.98 500.392C2258.59 500.392 2254.52 494.026 2249.93 486.386L2241.66 472.508L2235.67 472.381C2232.24 472.381 2229.56 472.763 2229.56 473.272C2229.56 473.654 2234.4 481.675 2240.38 490.843C2246.37 500.138 2251.21 508.159 2251.21 508.796C2251.21 509.432 2245.99 517.709 2239.75 527.131L2228.29 544.32L2234.27 544.957C2237.71 545.339 2240.77 545.466 2241.28 545.211C2241.79 545.084 2245.35 539.609 2249.17 533.115ZM2432.79 519.364C2433.43 490.716 2433.68 489.952 2442.21 484.095C2450.23 478.747 2462.46 481.675 2466.66 490.206C2468.57 494.026 2468.95 498.482 2468.95 520.255V545.975L2474.3 545.72L2479.78 545.593L2480.16 521.401C2480.41 506.504 2480.03 494.663 2479.14 490.461C2474.94 470.98 2449.98 464.359 2435.97 478.874L2431.9 483.203L2432.28 478.11L2432.66 473.017L2426.68 472.635L2420.82 472.253L2420.69 493.644C2420.56 505.358 2420.95 521.911 2421.33 530.314L2422.09 545.593L2427.19 545.466L2432.15 545.339L2432.79 519.364ZM2533.77 543.938C2533.64 542.792 2533.26 540.373 2532.75 538.59C2531.98 535.789 2531.22 535.534 2527.14 535.789C2523.58 536.171 2521.8 535.534 2519.25 532.988C2516.07 529.805 2516.07 529.805 2516.07 506.122V482.567L2520.14 482.439C2532.62 482.057 2531.98 482.312 2531.98 477.474V473.017L2524.98 472.635C2521.16 472.381 2517.47 471.744 2516.83 471.107C2516.19 470.471 2515.81 466.269 2515.94 461.685L2516.07 453.282H2510.34H2504.61V462.831V472.381H2498.88C2493.27 472.381 2493.15 472.381 2493.15 476.71C2493.15 480.784 2493.4 481.039 2498.75 481.803L2504.48 482.694L2504.86 508.669C2505.24 532.479 2505.5 534.898 2507.92 538.208C2511.74 543.556 2518.1 546.23 2526.51 546.23C2532.75 546.23 2533.89 545.848 2533.77 543.938ZM2638.31 520.51C2638.31 496.954 2638.56 494.281 2640.85 490.461C2647.99 478.747 2664.79 478.365 2672.31 489.824C2674.34 492.753 2674.6 496.827 2674.98 519.746L2675.49 546.23H2680.58H2685.68L2685.17 516.69C2684.79 483.203 2684.28 481.421 2675.11 475.309C2665.43 468.943 2650.79 470.216 2642.76 478.238L2638.31 482.694V477.474V472.381H2632.58H2626.85V508.414C2626.85 528.277 2627.23 544.957 2627.74 545.339C2628.12 545.848 2630.8 546.23 2633.47 546.23H2638.31V520.51ZM2800.79 533.752C2800.79 527.64 2800.92 515.926 2801.04 507.523L2801.3 492.498L2806.26 487.532C2810.85 482.821 2811.61 482.567 2819 482.567H2826.76V476.837V471.107H2821.03C2813.39 471.107 2807.54 473.654 2803.46 478.874L2800.02 483.203V477.728V472.381H2794.68H2789.2L2789.33 501.411C2789.46 517.327 2789.58 533.752 2789.71 537.954L2789.84 545.593L2795.19 545.211L2800.66 544.702L2800.79 533.752ZM243.128 539.863V534.77H219.571H196.014L196.778 491.607C197.542 450.353 197.415 448.316 195.25 447.297C193.849 446.661 192.067 446.279 191.175 446.406C190.411 446.533 188.501 446.661 187.101 446.788C184.554 446.915 184.554 447.807 184.554 495.936V544.957H213.841H243.128V539.863ZM1064.82 536.044C1053.87 533.497 1048.52 524.712 1048.65 509.178C1048.65 503.703 1049.54 497.464 1050.44 495.172C1055.4 482.694 1067.12 478.11 1079.09 483.84C1086.6 487.532 1090.16 494.408 1090.93 506.886C1091.44 515.289 1091.06 517.581 1088.38 523.566C1083.8 533.625 1074.88 538.336 1064.82 536.044ZM1378.07 536.044C1372.85 534.898 1370.68 533.115 1368.77 528.404C1366.86 523.82 1368.65 518.473 1372.85 515.799C1375.14 514.398 1399.21 509.305 1403.79 509.305C1405.45 509.305 1404.3 522.802 1402.26 526.494C1399.84 530.951 1395 534.516 1389.78 535.916C1384.18 537.444 1383.8 537.444 1378.07 536.044ZM1706.21 535.916C1688.64 530.696 1684.31 499.628 1699.21 486.514C1711.05 476.2 1728.75 482.439 1732.83 498.228C1738.68 521.783 1724.93 541.391 1706.21 535.916ZM587.571 534.898C577.638 530.441 572.29 515.162 575.474 500.01C579.548 480.02 601.45 474.418 612.146 490.461C616.476 497.082 617.749 514.016 614.438 522.547C611 531.333 606.162 535.152 597.503 535.662C593.428 535.789 588.971 535.534 587.571 534.898ZM893.685 533.115C886.682 528.531 884.262 522.038 884.262 508.669C884.39 495.936 886.045 491.479 892.539 486.004C904.636 475.691 922.208 483.076 925.646 499.883C928.448 513.252 923.736 528.277 914.95 533.625C909.22 537.062 899.288 536.808 893.685 533.115ZM1295.17 533.497C1292.37 531.715 1289.83 528.531 1287.66 523.82C1284.86 517.581 1284.48 515.417 1284.99 506.886C1285.75 494.281 1289.19 487.532 1297.21 483.713C1301.29 481.675 1304.21 481.166 1308.54 481.675C1315.8 482.439 1320.26 485.622 1323.95 492.88C1326.63 497.846 1326.88 499.883 1326.5 509.942C1325.99 522.929 1323.19 529.295 1316.06 533.625C1310.71 536.935 1300.65 536.808 1295.17 533.497ZM1623.83 534.134C1621.41 533.115 1618.48 530.059 1616.19 526.24C1613 520.764 1612.62 518.982 1612.62 508.669C1612.62 490.97 1618.1 482.821 1630.7 481.675C1644.96 480.275 1654.01 490.715 1654.01 508.796C1654.01 519.746 1649.8 529.423 1643.31 533.497C1638.34 536.426 1629.81 536.808 1623.83 534.134ZM2725.28 533.497C2719.93 530.314 2717.77 526.876 2715.47 517.709C2711.65 503.193 2716.62 488.296 2726.68 483.713C2736.87 479.129 2746.8 481.675 2752.66 490.461C2755.2 494.408 2755.97 497.464 2756.48 505.358C2757.11 516.563 2755.58 522.674 2750.75 528.531C2744.25 536.298 2733.3 538.463 2725.28 533.497ZM399.496 533.497C389.182 530.314 382.943 521.019 382.815 508.669C382.688 498.864 384.725 492.88 389.946 487.914C399.751 478.365 411.593 479.129 419.742 489.824C422.926 494.026 423.308 495.681 423.69 505.995C424.072 516.053 423.69 518.345 421.143 523.311C416.941 531.587 407.518 535.916 399.496 533.497ZM267.704 501.029C266.431 497.464 272.797 487.278 278.273 484.222C291.516 476.71 308.069 484.859 308.069 498.992V502.939H288.332C271.651 502.939 268.341 502.684 267.704 501.029ZM657.732 501.793C656.841 500.392 658.751 493.771 661.425 489.697C669.065 478.11 687.911 478.492 695.169 490.461C696.57 492.753 697.716 496.573 697.716 498.864V502.939H678.106C667.283 502.939 658.114 502.43 657.732 501.793ZM966.394 501.411C966.521 498.355 971.105 489.57 974.161 486.768C978.108 483.203 983.202 481.293 988.805 481.293C993.389 481.293 1001.79 484.858 1004.34 488.042C1005.49 489.442 1009.56 500.647 1009.69 502.684C1009.69 502.811 1000.01 502.939 988.041 502.939C971.614 502.939 966.394 502.557 966.394 501.411ZM1126.84 501.666C1126.84 498.992 1130.91 490.843 1133.59 487.914C1137.91 483.203 1142.63 481.293 1149.5 481.293C1159.56 481.293 1166.69 487.914 1169.37 499.374L1170.13 502.939H1148.48C1134.48 502.939 1126.84 502.43 1126.84 501.666ZM2086.31 499.374C2089.24 487.787 2096.88 480.911 2106.68 481.039C2116.61 481.293 2122.98 486.132 2125.78 495.809C2126.8 499.246 2127.69 502.302 2127.69 502.557C2127.69 502.812 2118.14 502.939 2106.56 502.939H2085.42L2086.31 499.374ZM2350.53 501.411C2350.66 497.718 2355.5 489.188 2359.32 486.004C2364.41 481.803 2368.1 480.784 2375.62 481.675C2384.78 482.694 2390.64 488.551 2393.06 499.374L2393.82 502.939H2372.18C2355.75 502.939 2350.53 502.557 2350.53 501.411ZM2557.32 498.864C2560.25 484.349 2576.04 476.964 2588.65 483.967C2593.74 486.896 2595.14 488.806 2598.07 497.591L2599.98 502.939H2578.21H2556.56L2557.32 498.864ZM2845.87 500.265C2845.87 495.681 2849.69 489.188 2854.52 485.495C2861.02 480.529 2871.46 479.893 2877.7 484.095C2882.16 487.023 2885.59 492.753 2887.12 499.374L2887.89 502.939H2866.88C2846.37 502.939 2845.87 502.812 2845.87 500.265ZM998.864 452.518C1008.41 438.766 1008.41 439.021 1000.65 439.53L994.025 439.912L988.55 450.098C985.494 455.701 982.947 460.539 982.947 460.921C982.947 461.303 985.239 461.431 988.041 461.176C992.625 460.667 993.643 459.903 998.864 452.518ZM545.168 457.483C550.134 453.027 546.569 444.369 539.692 444.369C535.108 444.369 532.18 447.425 532.18 452.008C532.18 458.884 539.947 462.194 545.168 457.483ZM775.645 457.483C778.446 454.937 778.701 449.08 775.9 446.406C771.443 441.95 762.657 445.642 762.657 452.008C762.657 458.502 770.806 461.94 775.645 457.483ZM2056.13 457.611C2061.86 453.536 2058.17 444.369 2050.66 444.369C2044.03 444.369 2040.34 452.518 2044.8 456.974C2047.98 460.157 2052.18 460.412 2056.13 457.611ZM612.019 375.867C614.184 374.721 620.168 371.156 625.135 368.1C636.085 361.352 661.68 352.185 677.469 349.511C697.97 345.946 731.969 347.346 755.653 352.694C758.455 353.33 762.02 353.967 763.675 353.967H766.477V271.842V189.716H758.71H751.069L751.451 258.218L751.833 326.592L737.19 326.21C703.573 325.319 669.575 332.194 640.542 345.818C633.921 348.874 628.318 351.166 628.063 350.911C627.045 350.02 645.636 337.415 654.676 332.831C672.121 324.045 702.682 316.406 727.003 315.005L741.01 314.114V235.299V156.611H734.261C726.239 156.611 701.027 159.667 686.128 162.341C664.099 166.415 638.25 174.819 617.749 184.623L604.761 190.862L604.634 205.887C604.634 214.163 604.252 226.259 603.87 232.752L603.233 244.594L612.019 238.609C622.333 231.479 634.175 225.877 650.602 220.529C661.17 216.964 682.563 211.362 685.364 211.362C685.874 211.362 686.128 224.986 686.001 241.538L685.619 271.587L681.799 272.733C660.406 279.099 649.074 284.32 634.303 294.506C624.243 301.509 611.637 314.114 606.162 323.027L602.596 328.757L599.031 322.517C591.263 309.276 570.126 290.559 553.699 282.537C534.344 273.115 528.105 266.494 518.045 245.23C510.533 229.06 507.477 215.181 507.604 196.082C507.604 173.673 512.188 155.975 522.63 137.894C527.978 128.727 546.696 110.647 556.373 105.299C573.818 95.7494 595.211 91.675 616.221 94.0942C642.962 97.15 659.133 104.153 679.252 121.724L687.02 128.472L700.772 115.867C708.285 108.864 717.58 100.588 721.4 97.2773C725.22 93.9668 728.276 90.911 728.276 90.2744C728.276 88.3645 720.127 79.9609 711.723 73.2126C702.173 65.7004 688.548 57.5514 678.87 53.6043C675.305 52.2037 669.447 49.7846 666.009 48.384C647.291 40.8717 614.056 36.9246 587.825 39.2165C559.557 41.763 537.4 48.766 513.334 62.8992C496.144 72.958 471.059 98.9325 465.456 112.302C463.673 116.504 463.419 129.364 463.419 215.818V314.496H470.804C490.541 314.496 526.068 322.136 545.041 330.284C555.227 334.741 574.837 346.964 578.148 350.911C579.166 352.184 576.365 351.293 571.017 348.619C542.239 334.104 505.949 325.955 470.549 325.955H453.232L453.104 229.442L452.977 133.056L448.775 141.969C444.063 152.155 441.135 162.85 439.097 177.875C437.569 189.589 437.951 351.803 439.479 353.458C439.989 353.967 447.756 353.076 456.67 351.421C479.081 347.346 511.679 346.455 527.723 349.511C550.134 353.712 570.38 361.479 585.661 371.793C589.481 374.339 593.555 376.886 594.574 377.268C598.649 378.796 608.072 378.032 612.019 375.867ZM1468.1 353.458C1490.12 347.601 1500.82 340.725 1514.32 324.3C1519.41 318.061 1528.96 298.453 1527.56 297.18C1527.31 296.798 1519.03 295.779 1509.35 294.633C1499.55 293.614 1488.47 292.469 1484.52 292.087C1477.52 291.323 1477.39 291.323 1474.72 295.524C1465.55 310.421 1449.89 317.17 1431.04 314.496C1415.38 312.204 1404.17 304.692 1398.06 292.469C1394.37 284.829 1390.17 269.04 1391.31 267.003C1391.69 266.367 1393.73 265.985 1396.02 266.112C1398.19 266.239 1429.13 266.367 1464.78 266.239L1529.6 266.112L1528.83 248.541C1527.82 227.15 1524.89 214.927 1516.99 198.629C1506.17 176.602 1487.45 161.704 1462.37 155.211C1447.21 151.264 1421.49 151.264 1407.61 155.211C1377.81 163.487 1356.17 182.586 1345.6 209.579C1339.61 224.986 1337.83 235.554 1337.96 255.289C1337.96 270.186 1338.47 275.152 1341.27 285.72C1346.36 305.583 1352.09 315.642 1365.59 329.266C1378.58 342.38 1389.15 348.619 1405.32 352.821C1423.66 357.66 1451.67 357.914 1468.1 353.458ZM346.525 353.84C352.255 352.439 360.404 349.638 364.734 347.728C373.52 343.781 387.272 331.558 393.257 322.517C397.459 316.279 401.788 305.965 400.769 304.819C400.005 304.183 374.92 297.944 372.501 297.944C371.61 297.944 369.954 299.981 368.808 302.527C364.861 310.549 355.82 318.952 346.015 323.409C338.248 326.974 335.064 327.738 324.368 328.247C309.597 329.011 298.774 327.101 288.969 322.136C281.201 318.188 270.251 307.366 266.303 299.726C262.61 292.469 258.536 277.953 258.154 270.568L257.772 264.202L331.244 263.82L404.844 263.565V254.271C404.844 232.752 401.024 214.29 393.002 197.356C388.927 188.57 385.999 184.623 377.594 176.22C360.404 159.285 343.851 152.919 316.855 152.792C272.415 152.792 241.855 177.493 229.503 223.458C226.575 234.535 226.065 238.737 226.065 255.289C226.065 271.332 226.447 276.171 228.994 285.848C238.417 322.008 258.154 343.399 291.643 353.203C306.159 357.532 331.117 357.787 346.525 353.84ZM886.809 353.967C892.284 352.567 899.288 349.893 902.344 348.11C909.475 344.036 920.935 332.322 925.392 324.809L928.83 318.952L929.466 335.887C929.848 345.054 930.485 352.694 930.994 352.694C931.631 352.694 943.346 352.694 957.353 352.694H982.692L982.565 254.016L982.438 155.338H954.297H926.283V216.2V277.062L921.444 286.739C915.714 298.453 908.838 304.819 899.033 307.748C885.536 311.567 868.218 306.729 861.596 296.925C853.447 285.211 853.702 288.012 853.32 218.747L852.938 155.338H824.924H796.91L797.292 225.113C797.801 291.705 797.929 295.142 800.476 304.437C808.625 333.468 824.924 349.001 853.065 354.604C865.162 357.023 875.603 356.896 886.809 353.967ZM1213.42 353.84C1228.83 349.638 1239.15 341.616 1247.3 327.738L1250.99 321.499L1251.24 334.232C1251.75 354.858 1248.57 352.694 1279.64 352.694H1306.38L1306.12 220.02L1305.74 87.2185L1284.73 87.4732C1273.14 87.6005 1260.67 87.8551 1256.97 87.8551H1250.22L1250.61 136.876C1250.86 163.869 1250.86 185.896 1250.73 185.896C1250.61 185.896 1248.44 182.713 1246.02 178.893C1233.93 160.176 1218.77 152.41 1194.32 152.537C1150.9 152.537 1120.21 181.058 1112.07 228.551C1109.14 245.74 1110.03 273.879 1113.98 289.031C1123.14 324.045 1144.41 347.473 1173.31 354.476C1184.9 357.278 1202.09 357.023 1213.42 353.84ZM1919.5 354.094C1936.82 349.638 1949.04 341.107 1958.21 326.847L1963.43 318.952V335.123C1963.43 344.036 1963.94 351.548 1964.45 351.93C1964.96 352.185 1976.8 352.694 1990.81 352.821L2016.27 353.076L2016.66 254.271L2016.91 155.338H1989.02H1961.01L1960.63 216.709L1960.25 278.208L1956.3 286.484C1951.59 296.288 1945.73 302.527 1938.22 305.838C1919.5 314.241 1897.85 306.092 1890.59 288.012C1887.67 280.882 1887.67 280.118 1887.28 218.11L1886.9 155.465L1861.05 155.083C1846.79 154.829 1834.31 154.829 1833.17 155.083C1831.13 155.465 1831 160.94 1831 218.747C1831 255.417 1831.51 286.612 1832.4 292.723C1834.82 312.204 1844.5 331.048 1857.11 341.362C1873.02 354.094 1899 359.442 1919.5 354.094ZM2155.2 353.458C2168.44 349.256 2176.46 342.38 2189.45 323.918C2190.85 321.881 2190.85 321.499 2191.23 342.253L2191.36 352.694L2218.36 352.439L2245.48 352.057V222.821C2245.48 151.773 2245.35 92.3116 2245.1 90.6563L2244.59 87.8551H2217.34H2190.09L2189.83 136.366L2189.45 184.878L2182.45 175.583C2169.84 158.903 2156.22 152.537 2132.79 152.537C2097.51 152.537 2071.92 170.235 2057.91 204.104C2051.55 219.256 2049.76 230.97 2049.76 255.289C2049.76 274.388 2050.02 278.335 2052.95 289.285C2057.91 308.002 2066.32 323.281 2077.9 334.868C2088.47 345.309 2096.75 350.02 2111.52 354.094C2122.6 357.023 2144.76 356.768 2155.2 353.458ZM2480.28 353.967C2486.27 352.567 2492 350.911 2492.89 350.275C2494.16 349.511 2493.66 345.182 2489.96 329.011C2487.42 317.934 2485.12 308.639 2484.87 308.384C2484.61 308.002 2482.58 308.512 2480.28 309.276C2474.55 311.313 2463.09 311.058 2458.77 308.766C2456.86 307.748 2453.93 304.946 2452.53 302.655C2449.98 298.453 2449.85 296.798 2449.85 247.14V196.082H2470.23H2490.6V175.71V155.338H2470.23H2449.85V130.509V105.681H2422.09H2394.46V130.127V154.701L2380.2 155.083L2366.06 155.465L2366.19 175.71L2366.32 195.955L2380.33 196.337L2394.46 196.719L2395.1 256.562C2395.86 321.244 2395.73 320.226 2403.12 331.812C2406.69 337.542 2414.96 345.309 2420.18 347.983C2436.48 356.259 2460.42 358.551 2480.28 353.967ZM2774.94 354.476C2784.23 351.293 2791.11 341.107 2791.11 330.284C2791.11 320.735 2780.92 309.148 2770.74 307.493C2760.55 305.838 2747.69 313.095 2744.12 322.517C2743.36 324.555 2742.72 329.138 2742.72 332.831C2742.72 343.654 2748.71 351.293 2760.55 355.622C2764.12 356.896 2768.95 356.514 2774.94 354.476ZM1077.18 254.653V155.338H1049.16H1021.15V254.016V352.694L1048.91 353.076C1064.06 353.203 1076.67 353.458 1076.92 353.712C1077.05 353.84 1077.18 309.276 1077.18 254.653ZM2340.98 254.016V155.338H2312.71H2284.44L2284.32 254.016V352.567L2294.76 352.949C2300.61 353.203 2313.35 353.203 2323.15 353.076L2340.98 352.694V254.016ZM2685.17 274.643L2685.42 195.955L2702.99 196.21C2712.54 196.337 2721.59 196.337 2722.99 196.21C2725.41 196.082 2725.53 195.319 2725.15 175.71L2724.77 155.338H2705.03C2687.97 155.338 2685.3 155.083 2684.53 153.301C2683.13 149.608 2686.31 131.019 2688.86 127.581C2695.23 119.05 2706.43 116.249 2719.17 120.196C2722.6 121.215 2725.53 121.979 2725.66 121.851C2725.79 121.724 2727.44 113.83 2729.35 104.408C2731.26 94.9854 2733.3 86.3272 2733.94 85.0539C2734.96 83.2714 2734.32 82.5074 2731.01 81.1069C2717.89 75.6318 2690.77 74.2312 2674.6 78.1784C2658.17 82.1255 2644.67 91.9295 2638.18 104.535C2632.58 115.612 2631.56 120.196 2630.8 137.512L2630.03 154.701L2619.84 154.829C2614.24 154.956 2607.49 155.083 2604.95 155.211L2600.24 155.338V175.71V196.082L2610.04 196.21C2615.39 196.337 2622.01 196.21 2624.56 196.082L2629.39 195.828V274.261V352.567L2632.96 352.949C2634.87 353.203 2647.35 353.458 2660.59 353.33H2684.79L2685.17 274.643ZM2993.57 294.76C2993.57 262.547 2994.21 231.861 2994.85 226.768C2998.67 197.738 3020.57 180.167 3050.24 182.459C3055.08 182.841 3060.43 183.605 3062.08 183.986C3064.88 184.878 3064.88 184.878 3064.88 169.089V153.174L3057.24 152.41C3046.16 151.136 3031.27 153.428 3022.22 157.757C3013.18 161.959 3007.45 167.307 2999.69 178.511L2994.21 186.533L2993.83 170.872L2993.45 155.338H2977.91H2962.38L2962.63 252.361C2962.76 305.838 2963.01 350.147 2963.01 351.039C2963.01 352.694 2967.85 353.33 2983.13 353.33L2993.57 353.458V294.76ZM198.561 338.051V323.409H135.657H72.626V205.505C72.626 140.568 72.3713 87.3458 72.244 87.2185C71.9893 87.2185 64.6038 87.3458 55.6904 87.6005L39.3914 88.1098V220.402V352.694H118.976H198.561V338.051ZM2577.19 254.016V155.338H2549.17H2521.16V254.016V352.694H2549.17H2577.19V254.016ZM2881.52 267.385V182.077H2904.44H2927.49L2927.11 168.325L2926.72 154.701L2904.18 155.211L2881.52 155.593V143.497C2881.52 128.982 2883.17 120.069 2886.99 114.339C2892.85 105.681 2904.69 102.37 2920.1 105.044C2925.2 105.935 2929.65 106.317 2930.03 105.808C2931.18 104.789 2936.15 82.3801 2935.51 81.3615C2935.25 80.8522 2930.92 79.4516 2925.96 78.3057C2907.62 73.8492 2881.52 77.9237 2869.42 87.0912C2865.09 90.4017 2856.18 102.498 2854.27 107.591C2852.1 113.448 2850.7 123.761 2850.19 138.786L2849.68 154.701L2833.39 155.083L2817.21 155.465L2817.34 168.453V181.44L2833.51 181.822L2849.68 182.204V267.385V352.694H2865.6H2881.52V267.385ZM1192.03 308.002C1175.61 299.853 1167.33 281.518 1167.2 253.379C1167.2 219.511 1180.83 198.629 1204.51 196.464C1229.34 194.173 1247.04 212.762 1250.22 244.466C1253.41 274.515 1243.09 299.981 1224.25 308.894C1214.57 313.477 1202.35 313.223 1192.03 308.002ZM2131.9 308.766C2114.83 300.235 2105.92 281.518 2105.79 254.271C2105.79 239.628 2107.7 229.569 2112.67 219.383C2120.31 203.595 2130.88 196.719 2146.79 196.719C2154.43 196.846 2157.74 197.483 2163.35 200.157C2172.01 204.359 2173.15 205.377 2179.01 213.017C2186.78 223.203 2189.45 234.28 2189.32 255.289C2189.32 270.441 2188.81 274.261 2186.52 280.754C2180.92 295.906 2171.37 306.474 2159.65 310.421C2151.76 313.095 2139.15 312.331 2131.9 308.766ZM258.408 234.535C258.536 223.33 265.157 208.688 275.344 197.865C284.767 187.806 294.699 182.586 308.324 180.803C341.813 176.22 366.134 196.21 372.374 233.262L373.138 238.1H315.709H258.408V234.535ZM1394.11 231.607C1392.97 230.97 1392.97 229.315 1394.11 224.731C1398.32 208.178 1410.67 196.719 1427.6 193.536C1435.37 192.008 1448.36 193.791 1455.36 197.356C1464.91 202.194 1474.72 217.091 1475.99 228.678L1476.37 232.37L1436.01 232.498C1413.72 232.498 1394.88 232.116 1394.11 231.607ZM1060.75 128.472C1071.95 125.034 1080.1 113.448 1079.98 101.224C1079.98 90.0197 1073.1 80.2156 1062.28 75.7591C1056.42 73.2126 1042.67 73.3399 1036.68 75.8864C1026.62 80.0882 1018.73 91.1656 1018.6 101.224C1018.6 112.047 1027.51 124.398 1037.96 128.218C1043.43 130.127 1054.64 130.255 1060.75 128.472ZM2327.1 127.454C2339.07 121.979 2345.95 107.973 2342.89 95.24C2340.85 86.9638 2332.19 77.7964 2324.3 75.3772C2316.66 73.0853 2304.94 73.4673 2298.96 76.2685C2292.21 79.3243 2284.83 87.7278 2282.92 94.4761C2280.37 104.408 2285.72 118.286 2294.63 124.525C2302.65 130.127 2318.06 131.528 2327.1 127.454ZM2560.89 127.836C2567.64 125.544 2575.4 118.541 2577.95 112.556C2580.5 106.445 2580.24 96.2587 2577.31 90.6563C2571.58 79.5789 2562.16 73.9766 2549.05 73.8492C2531.09 73.8492 2518.61 85.5633 2518.61 102.37C2518.61 107.463 2521.8 115.74 2525.23 119.687C2532.87 128.727 2548.28 132.165 2560.89 127.836Z" fill="#1B2E4A"/>
<path fill-rule="evenodd" clip-rule="evenodd" d="M1608.8 334.613C1612.11 324.555 1615.04 315.769 1615.3 315.005C1615.68 314.241 1613.89 310.803 1611.48 307.238C1607.27 301.127 1600.52 288.776 1600.4 286.866C1600.4 286.229 1599.89 285.211 1599.25 284.574C1598.74 283.938 1598.23 278.335 1598.23 272.096C1598.1 257.963 1601.29 251.469 1611.48 244.976L1618.35 240.519V233.134C1618.35 229.06 1619.5 222.566 1620.77 218.619C1623.06 212.126 1623.06 210.98 1621.41 205.505C1618.61 196.21 1619.12 187.424 1622.81 179.912C1624.59 176.347 1627.14 172.527 1628.54 171.254C1630.96 169.089 1630.96 168.962 1627.26 163.614L1623.44 158.139L1617.08 160.558C1613.51 161.832 1609.31 162.978 1607.78 162.978C1604.98 162.978 1603.83 165.906 1591.23 203.467C1579.64 238.355 1561.18 292.214 1548.57 328.502C1546.53 334.486 1544.88 339.579 1544.75 339.961C1544.62 340.343 1543.73 342.762 1542.71 345.309C1541.57 347.983 1540.68 350.657 1540.68 351.421C1540.68 352.184 1551.25 352.694 1571.87 352.694H1602.94L1608.8 334.613ZM1789.49 290.559C1778.03 256.435 1767.59 227.914 1766.57 227.023C1764.79 225.749 1763.39 226.768 1757.53 233.389C1747.09 245.358 1733.72 263.311 1729.26 271.587C1725.69 278.335 1724.68 283.81 1726.46 287.121C1726.84 287.757 1727.22 289.031 1727.35 289.922C1727.48 290.813 1729.64 297.689 1732.06 305.201C1734.61 312.713 1738.94 326.592 1741.87 335.887L1747.09 352.694H1778.79H1810.5L1789.49 290.559ZM1681.38 307.366C1693.99 301.254 1700.61 293.36 1710.92 272.351C1720.6 252.488 1725.57 245.358 1741.99 226.641C1756.51 210.216 1761.22 203.467 1767.33 190.735C1787.71 148.462 1783.12 98.4232 1756.38 68.3742C1746.2 57.0422 1728.24 45.8374 1714.23 42.145C1690.17 35.6513 1660.88 39.0892 1641.91 50.2939C1615.8 65.8277 1600.4 92.5662 1598.36 125.671C1597.47 140.95 1599 145.152 1605.74 145.152C1613.39 145.152 1614.53 143.497 1614.53 133.183C1614.53 117.14 1621.41 96.004 1630.83 83.2714C1635.92 76.2685 1648.91 66.8463 1659.61 62.2626C1674.25 56.0236 1697.68 55.2596 1712.58 60.48C1745.05 71.9393 1762.24 99.3145 1762.24 139.168C1762.24 167.307 1753.96 185.387 1725.95 218.365C1709.78 237.463 1705.32 244.212 1697.94 261.146C1690.68 277.699 1684.57 285.847 1675.65 291.322C1669.79 294.76 1667.5 295.397 1660.63 295.397C1644.45 295.397 1631.08 283.301 1631.08 268.658C1631.08 265.221 1630.19 262.674 1628.54 261.019C1625.23 257.708 1622.43 257.836 1618.73 261.274C1616.31 263.438 1615.8 265.348 1615.8 271.078C1615.8 285.338 1621.53 296.288 1632.99 303.8C1642.54 310.167 1649.8 312.077 1662.92 311.44C1671.7 311.058 1675.27 310.294 1681.38 307.366ZM1660.63 250.833C1665.97 249.305 1671.83 243.193 1675.52 235.299C1678.96 228.041 1679.85 227.023 1691.06 218.619C1705.83 207.542 1711.31 197.865 1711.31 183.095C1711.31 156.739 1690.68 134.456 1662.79 130.637L1652.48 129.236L1653.11 123.888C1654.26 113.448 1662.66 101.606 1672.47 96.5133C1676.16 94.4761 1680.11 93.8394 1687.11 93.7121C1695.64 93.5848 1697.43 93.9668 1704.68 97.9139C1723.4 108.1 1732.95 129.363 1731.17 156.611C1730.66 163.232 1730.02 170.235 1729.64 172.145C1729.01 174.946 1729.26 175.71 1730.92 175.71C1732.32 175.71 1732.7 175.074 1732.19 174.182C1731.68 173.418 1731.81 173.164 1732.57 173.546C1734.1 174.564 1739.7 162.596 1741.99 153.683C1742.89 149.99 1743.27 142.096 1742.89 133.183C1742.38 119.941 1741.99 118.159 1737.79 109.373C1726.84 86.4546 1707.49 74.9952 1682.66 76.9051C1660.75 78.5603 1642.29 93.9668 1637.32 114.594C1630.83 142.351 1643.95 167.052 1667.5 171.381L1672.47 172.272L1664.45 163.869C1653.88 152.792 1654.01 149.608 1665.08 150.118C1681 150.627 1696.28 168.707 1694.37 184.75C1693.35 193.409 1690.04 198.374 1680.49 205.377C1669.41 213.526 1664.96 218.492 1661.52 226.641C1657.32 236.827 1652.73 239.755 1650.06 233.898C1649.04 231.607 1649.17 229.697 1650.95 225.877C1652.1 223.203 1653.24 220.656 1653.24 220.274C1653.37 219.892 1654.64 218.237 1656.3 216.455C1657.83 214.799 1659.1 212.635 1659.1 211.744C1659.1 210.852 1659.61 210.088 1660.24 210.088C1662.28 210.088 1664.45 202.703 1664.45 196.082C1664.32 188.57 1662.15 185.26 1655.66 182.586C1649.04 179.785 1645.22 180.421 1640.51 185.132C1635.41 190.225 1635.16 192.645 1638.85 203.595L1641.53 211.489L1638.22 218.874C1631.47 234.153 1635.67 246.886 1648.78 250.833C1653.37 252.233 1655.28 252.233 1660.63 250.833Z" fill="#D97B3D"/>
</svg>
